# AST/ASF file generated using VICON BodyLanguage
# -----------------------------------------------
:version 1.10
:name VICON
:units
  mass 1.0
  length 0.45
  angle deg
:documentation
   .ast/.asf automatically generated from VICON data using
   VICON BodyBuilder and BodyLanguage model FoxedUp or BRILLIANT.MOD
:root
   order TX TY TZ RX RY RZ
   axis XYZ
   position 0 0 0  
   orientation 0 0 0 
:bonedata
  begin
     id 1 
     name lhipjoint
     direction 0.573633 -0.743009 0.344793 
     length 2.46257 
     axis 0 0 0  XYZ
  end
  begin
     id 2 
     name lfemur
     direction 0.34202 -0.939693 0  
     length 7.3842  
     axis 0 0 20  XYZ
    dof rx ry rz
    limits (-160.0 20.0)
           (-70.0 70.0)
           (-60.0 70.0)
  end
  begin
     id 3 
     name ltibia
     direction 0.34202 -0.939693 0   
     length 7.50407   
     axis 0 0 20   XYZ
    dof rx
    limits (-10.0 170.0)
  end
  begin
     id 4 
     name lfoot
     direction 0.110749 -0.304281 0.946123   
     length 1.95925   
     axis -90 7.62852e-016 20   XYZ
    dof rx rz
    limits (-45.0 90.0)
           (-70.0 20.0)
  end
  begin
     id 5 
     name ltoes
     direction 1.53554e-011 -4.21843e-011 1   
     length 0.978318   
     axis -90 7.62852e-016 20   XYZ
    dof rx
    limits (-90.0 20.0)
  end
  begin
     id 6 
     name rhipjoint
     direction -0.488109 -0.791693 0.367385   
     length 2.31113  
     axis 0 0 0  XYZ 
  end
  begin
     id 7 
     name rfemur
     direction -0.34202 -0.939693 0   
     length 7.40965   
     axis 0 0 -20   XYZ
    dof rx ry rz
    limits (-160.0 20.0)
           (-70.0 70.0)
           (-70.0 60.0)
  end
  begin
     id 8 
     name rtibia
     direction -0.34202 -0.939693 0   
     length 7.55548   
     axis 0 0 -20   XYZ
    dof rx
    limits (-10.0 170.0)
 end
 begin
     id 9 
     name rfoot
     direction -0.127594 -0.350561 0.927808   
     length 2.07199  
     axis -90 -7.62852e-016 -20   XYZ
    dof rx rz
    limits (-45.0 90.0)
           (-20.0 70.0)
  end
  begin
     id 10 
     name rtoes
     direction -1.53542e-011 -4.21909e-011 1   
     length 1.02667   
     axis -90 -7.62852e-016 -20   XYZ
    dof rx
    limits (-90.0 20.0)
  end
  begin
     id 11 
     name lowerback
     direction -0.0103342 0.997298 -0.0727278   
     length 2.02836   
     axis 0 0 0   XYZ
    dof rx ry rz
    limits (-20.0 45.0)
           (-30.0 30.0)
           (-30.0 30.0)
  end
  begin
     id 12 
     name upperback
     direction 0.0171146 0.999786 -0.011606   
     length 2.03179   
     axis 0 0 0   XYZ
    dof rx ry rz
    limits (-20.0 45.0)
           (-30.0 30.0)
           (-30.0 30.0)
  end
  begin
     id 13 
     name thorax
     direction 0.0216927 0.999513 0.0224343   
     length 2.03882   
     axis 0 0 0   XYZ
    dof rx ry rz
    limits (-20.0 45.0)
           (-30.0 30.0)
           (-30.0 30.0)
  end
  begin
     id 14 
     name lowerneck
     direction 0.000989287 0.993907 0.110221   
     length 1.75428   
     axis 0 0 0   XYZ
    dof rx ry rz
    limits (-20.0 45.0)
           (-30.0 30.0)
           (-30.0 30.0)
  end
  begin
     id 15 
     name upperneck
     direction -0.0172474 0.994813 -0.100253   
     length 1.77058   
     axis 0 0 0   XYZ
    dof rx ry rz
    limits (-20.0 45.0)
           (-30.0 30.0)
           (-30.0 30.0)
  end
  begin
     id 16
     name head
     direction -0.00486455 0.99894 -0.0457663  
     length 1.77427  
     axis 0 0 0   XYZ
    dof rx ry rz
    limits (-20.0 45.0)
           (-30.0 30.0)
           (-30.0 30.0)
  end
  begin
     id 17 
     name lclavicle
     direction 0.927314 0.333734 -0.169441  
     length 3.97584  
     axis 0 0 0   XYZ
    dof ry rz
    limits (-20.0 10.0)
           (0.0 20.0)
  end
  begin
     id 18 
     name lhumerus
     direction 1 -4.48965e-011 -3.25313e-028   
     length 4.76468   
     axis 180 -30 -90   XYZ
    dof rx ry rz
    limits (-60.0 90.0)
           (-90.0 90.0)
           (-90.0 90.0)
  end
  begin
     id 19
     name lradius
     direction 1 -4.48969e-011 -2.8465e-028   
     length 3.52712   
     axis -180 -30 -90   XYZ
    dof rx
    limits (-10.0 170.0)
  end
  begin
     id 20
     name lwrist
     direction 1 -4.4896e-011 -7.78665e-028   
     length 1.76356   
     axis 1.91374e-015 90 90   XYZ
    dof ry
    limits (-180.0 0.0)
 end
  begin
     id 21 
     name lhand
     direction 1 -4.48959e-011 -1.55733e-027   
     length 0.859564   
     axis 9.9371e-016 90 90   XYZ
    dof rx rz
    limits (-90.0 90.0)
           (-45.0 45.0)
  end
  begin
     id 22 
     name lfingers
     direction 1 -4.48965e-011 -3.11466e-027   
     length 0.693002   
     axis 1.98742e-015 90 90   XYZ
    dof rx
    limits (0.0 90.0)
  end
  begin
     id 23
     name lthumb
     direction 0.707107 -6.34948e-011 0.707107   
     length 0.995017   
     axis -90 45 2.85299e-015   XYZ
    dof rx rz
    limits (-45.0 45.0)
           (-45.0 45.0)
  end
  begin
     id 24 
     name rclavicle
     direction -0.899388 0.348209 -0.264294   
     length 3.68366  
     axis 0 0 0   XYZ 
    dof ry rz
    limits (-10.0 20.0)
           (-20.0 0.0)
  end
  begin
     id 25 
     name rhumerus
     direction -1 -4.48965e-011 -3.01536e-027  
     length 4.90577   
     axis 180 30 90   XYZ
    dof rx ry rz
    limits (-90.0 60.0)
           (-90.0 90.0)
           (-90.0 90.0)
  end
  begin
     id 26 
     name rradius
     direction -1 -4.48966e-011 3.93291e-027   
     length 3.42692   
     axis -180 30 90   XYZ
    dof rx
    limits (-10.0 170.0)
  end
  begin
     id 27 
     name rwrist
     direction -1 -4.48969e-011 -7.78665e-028   
     length 1.71346   
     axis 1.91374e-015 -90 -90   XYZ
    dof ry
    limits (-180.0 0.0)
  end
  begin
     id 28
     name rhand
     direction -1 -4.48967e-011 -1.55733e-027   
     length 0.740957   
     axis 9.9371e-016 -90 -90   XYZ
    dof rx rz
    limits (-90.0 90.0)
           (-45.0 45.0)
  end
  begin
     id 29
     name rfingers
     direction -1 -4.48949e-011 -3.11466e-027   
     length 0.597378   
     axis 1.98742e-015 -90 -90   XYZ
    dof rx
    limits (0.0 90.0)
  end
  begin
     id 30
     name rthumb
     direction -0.707107 -6.34931e-011 0.707107   
     length 0.857719   
     axis -90 -45 -2.85299e-015   XYZ
    dof rx rz
    limits (-45.0 45.0)
           (-45.0 45.0)
  end
:hierarchy
  begin
    root lhipjoint rhipjoint lowerback
    lhipjoint lfemur
    lfemur ltibia
    ltibia lfoot
    lfoot ltoes
    rhipjoint rfemur
    rfemur rtibia
    rtibia rfoot
    rfoot rtoes
    lowerback upperback
    upperback thorax
    thorax lowerneck lclavicle rclavicle
    lowerneck upperneck
    upperneck head
    lclavicle lhumerus
    lhumerus lradius
    lradius lwrist
    lwrist lhand lthumb
    lhand lfingers
    rclavicle rhumerus
    rhumerus rradius
    rradius rwrist
    rwrist rhand rthumb
    rhand rfingers
  end

#!OML:ASF E:\I on waltz\AllaLogoMonkeySwing\Project 1\Capture day 1\Session 1\Subject1.ASF
:FULLY-SPECIFIED
:DEGREES
110
root 0.0338978 17.9604 -32.4173 2.27632 0.353436 -0.715957
lowerback 6.65502 0.176397 -2.4279
upperback 0.0953251 0.084585 0.969276
thorax -3.64025 0.0927505 2.3592
lowerneck -12.133 0.273007 -1.93045
upperneck 22.2056 1.06509 -1.08257
head 8.94987 0.224336 0.0764868
rclavicle 2.14625e-015 8.19987e-016
rhumerus -37.6731 -28.4912 -72.4009
rradius 26.9744
rwrist 3.24435
rhand -7.88718 -38.5856
rfingers 7.12502
rthumb 18.0174 -67.7711
lclavicle 2.14625e-015 8.19987e-016
lhumerus -41.4899 25.1464 76.3261
lradius 37.8808
lwrist -0.967537
lhand -7.76076 -12.6286
lfingers 7.12502
lthumb 18.139 16.5456
rfemur -0.129509 -4.04197 11.7166
rtibia 17.7864
rfoot -17.4636 -11.3202
rtoes 3.9769
lfemur 3.75238 1.63789 -13.7459
ltibia 9.12442
lfoot -13.6508 4.6307
ltoes -34.4726
111
root 0.0185903 17.9557 -32.4059 2.29449 0.620978 -0.685427
lowerback 6.80367 0.109945 -2.41402
upperback 0.155316 -0.0046101 1.00262
thorax -3.65625 0.0480387 2.39498
lowerneck -12.1332 0.30696 -2.03761
upperneck 22.1358 1.11529 -0.999624
head 8.92464 0.248748 0.128243
rclavicle 4.72424e-015 1.19271e-014
rhumerus -37.6692 -28.4278 -72.3373
rradius 26.9893
rwrist 3.52021
rhand -7.58716 -38.3455
rfingers 7.12502
rthumb 18.306 -67.5041
lclavicle 4.72424e-015 1.19271e-014
lhumerus -41.4687 25.0987 76.4678
lradius 37.9187
lwrist -0.977004
lhand -7.85306 -12.4018
lfingers 7.12502
lthumb 18.0502 16.7806
rfemur -0.129165 -4.26682 11.6907
rtibia 17.9064
rfoot -17.5583 -11.3092
rtoes 4.48485
lfemur 3.41103 1.49049 -13.7163
ltibia 9.70406
lfoot -13.961 4.54987
ltoes -33.9704
112
root 0.00468265 17.9515 -32.396 2.35999 0.924257 -0.780871
lowerback 6.96047 0.0498653 -2.26418
upperback 0.175884 -0.0738947 1.05754
thorax -3.71885 0.0121429 2.37499
lowerneck -11.9731 0.328244 -1.9156
upperneck 21.9885 1.12469 -1.05754
head 8.84495 0.259906 0.0885647
rclavicle 4.4975e-015 4.87022e-015
rhumerus -37.7412 -28.1133 -72.3901
rradius 27.0681
rwrist 3.90819
rhand -8.2861 -37.7739
rfingers 7.12502
rthumb 17.6335 -66.9943
lclavicle 4.4975e-015 4.87022e-015
lhumerus -41.4546 24.8992 76.6452
lradius 37.9423
lwrist -1.05999
lhand -7.90894 -12.2951
lfingers 7.12502
lthumb 17.9965 16.8923
rfemur -0.270215 -4.51658 11.8409
rtibia 18.2126
rfoot -17.7151 -11.3137
rtoes 5.05977
lfemur 2.96995 1.36128 -13.5359
ltibia 10.3494
lfoot -14.1643 4.46254
ltoes -34.4104
113
root -0.00938255 17.9447 -32.3854 2.46844 1.31814 -0.845501
lowerback 7.07931 -0.0322892 -2.11434
upperback 0.212766 -0.17097 1.11911
thorax -3.74184 -0.0382372 2.36472
lowerneck -11.9598 0.355456 -2.1307
upperneck 21.9249 1.13595 -0.747969
head 8.81711 0.281087 0.230683
rclavicle 1.33558e-015 5.56597e-015
rhumerus -37.8564 -28.3221 -71.9758
rradius 27.7741
rwrist 1.70173
rhand -5.53606 -39.0498
rfingers 7.12502
rthumb 20.2783 -68.0112
lclavicle 1.33558e-015 5.56597e-015
lhumerus -41.3669 24.8104 76.8484
lradius 37.9455
lwrist -1.18018
lhand -7.90077 -12.2764
lfingers 7.12502
lthumb 18.0043 16.9102
rfemur -0.479911 -4.72393 11.9854
rtibia 18.6212
rfoot -17.958 -11.4103
rtoes 5.91736
lfemur 2.46151 1.24464 -13.3703
ltibia 11.0163
lfoot -14.42 4.248
ltoes -34.503
114
root -0.0221761 17.9339 -32.3725 2.59934 1.73249 -0.737663
lowerback 7.19034 -0.120776 -2.13052
upperback 0.256646 -0.290367 1.16025
thorax -3.75158 -0.0971921 2.42931
lowerneck -11.7343 0.366936 -2.1743
upperneck 21.4012 1.18325 -0.914661
head 8.5977 0.290242 0.185118
rclavicle 1.51573e-015 -1.04362e-014
rhumerus -37.952 -28.2289 -71.81
rradius 28.0511
rwrist 1.52641
rhand -6.33648 -38.9908
rfingers 7.12502
rthumb 19.5089 -68.032
lclavicle 1.51573e-015 -1.04362e-014
lhumerus -41.2628 24.783 77.1001
lradius 37.9531
lwrist -1.17966
lhand -7.81643 -12.2242
lfingers 7.12502
lthumb 18.0855 16.955
rfemur -0.71636 -5.05394 11.881
rtibia 19.0667
rfoot -18.2793 -11.4446
rtoes 6.47492
lfemur 1.96644 1.06747 -13.4393
ltibia 11.594
lfoot -14.8607 4.04752
ltoes -33.2548
115
root -0.03201 17.9219 -32.3563 2.69929 2.0831 -0.479962
lowerback 7.3522 -0.153698 -2.25582
upperback 0.297156 -0.350105 1.09345
thorax -3.79661 -0.124966 2.43798
lowerneck -11.9859 0.33736 -2.37836
upperneck 21.6308 1.13252 -0.625863
head 8.71951 0.276123 0.312596
rclavicle -3.72721e-017 3.67752e-015
rhumerus -38.021 -27.8541 -71.9924
rradius 27.8881
rwrist 3.32155
rhand -8.66254 -38.4258
rfingers 7.12502
rthumb 17.2713 -67.6783
lclavicle -3.72721e-017 3.67752e-015
lhumerus -41.1824 24.493 77.3245
lradius 38.0221
lwrist -0.996035
lhand -7.78713 -12.0985
lfingers 7.12502
lthumb 18.1137 17.078
rfemur -0.94783 -5.47345 11.5542
rtibia 19.6152
rfoot -18.6762 -11.3577
rtoes 6.74435
lfemur 1.60169 0.90855 -13.7364
ltibia 12.059
lfoot -15.4212 3.92823
ltoes -31.6223
116
root -0.0423493 17.9083 -32.338 2.77703 2.4006 -0.290618
lowerback 7.55628 -0.180152 -2.29313
upperback 0.347002 -0.395209 1.0214
thorax -3.85691 -0.146911 2.39058
lowerneck -11.785 0.298631 -2.0456
upperneck 21.2026 1.07847 -0.997372
head 8.54125 0.245506 0.124397
rclavicle -9.19379e-016 1.21259e-014
rhumerus -38.1161 -27.7676 -71.9369
rradius 27.882
rwrist 3.61052
rhand -8.92127 -38.3568
rfingers 7.12502
rthumb 17.0222 -67.631
lclavicle -9.19379e-016 1.21259e-014
lhumerus -41.122 24.2087 77.495
lradius 38.1189
lwrist -0.961705
lhand -7.99502 -12.0233
lfingers 7.12502
lthumb 17.9136 17.1717
rfemur -1.19239 -5.79289 11.3386
rtibia 20.2406
rfoot -19.0293 -11.3006
rtoes 7.32314
lfemur 1.34628 0.908311 -13.8904
ltibia 12.4613
lfoot -16.0018 3.65927
ltoes -30.4952
